<?xml version="1.0" standalone="no"?>
<!DOCTYPE svg PUBLIC "-//W3C//DTD SVG 20010904//EN"
 "http://www.w3.org/TR/2001/REC-SVG-20010904/DTD/svg10.dtd">
<svg version="1.0" xmlns="http://www.w3.org/2000/svg"
 width="300.000000pt" height="300.000000pt" viewBox="0 0 300.000000 300.000000"
 preserveAspectRatio="xMidYMid meet">
<metadata>
Created by potrace 1.11, written by Peter Selinger 2001-2013
</metadata>
<g transform="translate(0.000000,300.000000) scale(0.100000,-0.100000)"
fill="#000000" stroke="none">
<path d="M1765 2388 c-11 -6 -181 -171 -378 -367 -197 -196 -360 -357 -362
-359 -2 -2 -60 53 -130 123 -126 125 -155 147 -191 140 -11 -2 -24 -4 -31 -4
-20 -2 -582 -569 -589 -596 -3 -14 -3 -36 0 -50 7 -28 259 -284 282 -286 18
-2 39 -2 61 0 9 0 76 60 149 132 l132 132 120 -121 c66 -66 131 -127 143 -136
26 -18 76 -21 99 -6 8 5 177 171 375 369 l361 360 354 -355 c195 -195 368
-362 384 -370 55 -30 83 -15 225 127 72 72 134 142 137 155 3 13 3 35 0 49 -8
32 -1021 1050 -1060 1065 -34 13 -56 12 -81 -2z"/>
</g>
</svg>
